<?xml version="1.0" encoding="UTF-8"?>
<!DOCTYPE svg PUBLIC "-//W3C//DTD SVG 1.1//EN" "http://www.w3.org/Graphics/SVG/1.1/DTD/svg11.dtd">
<svg xmlns="http://www.w3.org/2000/svg" version="1.1" width="500px" height="500px" style="shape-rendering:geometricPrecision; text-rendering:geometricPrecision; image-rendering:optimizeQuality; fill-rule:evenodd; clip-rule:evenodd" xmlns:xlink="http://www.w3.org/1999/xlink">
<g><path style="opacity:0.999" fill="#e6e5e9" d="M 72.5,35.5 C 154.167,35.5 235.833,35.5 317.5,35.5C 317.5,39.8333 317.5,44.1667 317.5,48.5C 347.833,48.5 378.167,48.5 408.5,48.5C 408.5,52.1667 408.5,55.8333 408.5,59.5C 412.833,59.5 417.167,59.5 421.5,59.5C 421.5,99.5 421.5,139.5 421.5,179.5C 421.831,204.339 421.498,229.006 420.5,253.5C 420.5,244.167 420.5,234.833 420.5,225.5C 416.5,225.5 412.5,225.5 408.5,225.5C 408.5,234.833 408.5,244.167 408.5,253.5C 408.5,259.833 408.5,266.167 408.5,272.5C 329.167,272.5 249.833,272.5 170.5,272.5C 170.5,206.167 170.5,139.833 170.5,73.5C 165.833,73.5 161.167,73.5 156.5,73.5C 156.5,139.833 156.5,206.167 156.5,272.5C 148.5,272.5 140.5,272.5 132.5,272.5C 132.5,205.833 132.5,139.167 132.5,72.5C 127.5,72.5 122.5,72.5 117.5,72.5C 117.5,139.167 117.5,205.833 117.5,272.5C 98.5,272.5 79.5,272.5 60.5,272.5C 60.5,197.833 60.5,123.167 60.5,48.5C 64.5,48.5 68.5,48.5 72.5,48.5C 72.5,44.1667 72.5,39.8333 72.5,35.5 Z"/></g>
<g><path style="opacity:1" fill="#fcfcfc" d="M 132.5,272.5 C 131.523,275.287 131.19,278.287 131.5,281.5C 131.5,285.167 131.5,288.833 131.5,292.5C 131.5,300.5 131.5,308.5 131.5,316.5C 131.5,320.5 131.5,324.5 131.5,328.5C 126.833,328.5 122.167,328.5 117.5,328.5C 117.5,324.5 117.5,320.5 117.5,316.5C 117.5,308.5 117.5,300.5 117.5,292.5C 117.5,288.833 117.5,285.167 117.5,281.5C 117.5,278.5 117.5,275.5 117.5,272.5C 117.5,205.833 117.5,139.167 117.5,72.5C 122.5,72.5 127.5,72.5 132.5,72.5C 132.5,139.167 132.5,205.833 132.5,272.5 Z"/></g>
<g><path style="opacity:1" fill="#fdfdfd" d="M 170.5,272.5 C 170.5,275.5 170.5,278.5 170.5,281.5C 170.5,285.167 170.5,288.833 170.5,292.5C 166.167,292.5 161.833,292.5 157.5,292.5C 157.5,288.833 157.5,285.167 157.5,281.5C 157.81,278.287 157.477,275.287 156.5,272.5C 156.5,206.167 156.5,139.833 156.5,73.5C 161.167,73.5 165.833,73.5 170.5,73.5C 170.5,139.833 170.5,206.167 170.5,272.5 Z"/></g>
<g><path style="opacity:0.998" fill="#9aa4ab" d="M 317.5,35.5 C 360.833,35.5 404.167,35.5 447.5,35.5C 447.5,114.5 447.5,193.5 447.5,272.5C 443.167,272.5 438.833,272.5 434.5,272.5C 434.5,241.5 434.5,210.5 434.5,179.5C 430.167,179.5 425.833,179.5 421.5,179.5C 421.5,139.5 421.5,99.5 421.5,59.5C 417.167,59.5 412.833,59.5 408.5,59.5C 408.5,55.8333 408.5,52.1667 408.5,48.5C 378.167,48.5 347.833,48.5 317.5,48.5C 317.5,44.1667 317.5,39.8333 317.5,35.5 Z"/></g>
<g><path style="opacity:1" fill="#9ea8b0" d="M 72.5,35.5 C 72.5,39.8333 72.5,44.1667 72.5,48.5C 68.5,48.5 64.5,48.5 60.5,48.5C 60.5,123.167 60.5,197.833 60.5,272.5C 56.8333,272.5 53.1667,272.5 49.5,272.5C 49.5,273.5 49.5,274.5 49.5,275.5C 48.5007,195.668 48.1674,115.668 48.5,35.5C 56.5,35.5 64.5,35.5 72.5,35.5 Z"/></g>
<g><path style="opacity:1" fill="#fdfdfd" d="M 421.5,179.5 C 425.833,179.5 430.167,179.5 434.5,179.5C 434.5,210.5 434.5,241.5 434.5,272.5C 430.167,272.5 425.833,272.5 421.5,272.5C 421.167,272.5 420.833,272.5 420.5,272.5C 420.5,266.167 420.5,259.833 420.5,253.5C 421.498,229.006 421.831,204.339 421.5,179.5 Z"/></g>
<g><path style="opacity:1" fill="#98a2a9" d="M 420.5,253.5 C 416.5,253.5 412.5,253.5 408.5,253.5C 408.5,244.167 408.5,234.833 408.5,225.5C 412.5,225.5 416.5,225.5 420.5,225.5C 420.5,234.833 420.5,244.167 420.5,253.5 Z"/></g>
<g><path style="opacity:1" fill="#fbc359" d="M 408.5,253.5 C 412.5,253.5 416.5,253.5 420.5,253.5C 420.5,259.833 420.5,266.167 420.5,272.5C 416.5,272.5 412.5,272.5 408.5,272.5C 408.5,266.167 408.5,259.833 408.5,253.5 Z"/></g>
<g><path style="opacity:1" fill="#fcd60d" d="M 170.5,272.5 C 249.833,272.5 329.167,272.5 408.5,272.5C 412.5,272.5 416.5,272.5 420.5,272.5C 420.833,272.5 421.167,272.5 421.5,272.5C 421.5,275.5 421.5,278.5 421.5,281.5C 417.5,281.5 413.5,281.5 409.5,281.5C 400.833,281.5 392.167,281.5 383.5,281.5C 312.5,281.5 241.5,281.5 170.5,281.5C 170.5,278.5 170.5,275.5 170.5,272.5 Z"/></g>
<g><path style="opacity:1" fill="#fcd612" d="M 60.5,272.5 C 79.5,272.5 98.5,272.5 117.5,272.5C 117.5,275.5 117.5,278.5 117.5,281.5C 98.5,281.5 79.5,281.5 60.5,281.5C 60.5,278.5 60.5,275.5 60.5,272.5 Z"/></g>
<g><path style="opacity:1" fill="#fba703" d="M 60.5,272.5 C 60.5,275.5 60.5,278.5 60.5,281.5C 60.5,285.167 60.5,288.833 60.5,292.5C 60.5,300.5 60.5,308.5 60.5,316.5C 60.1667,316.5 59.8333,316.5 59.5,316.5C 59.5,311.833 59.5,307.167 59.5,302.5C 56.1667,302.5 52.8333,302.5 49.5,302.5C 49.5,293.833 49.5,285.167 49.5,276.5C 49.5,276.167 49.5,275.833 49.5,275.5C 49.5,274.5 49.5,273.5 49.5,272.5C 53.1667,272.5 56.8333,272.5 60.5,272.5 Z"/></g>
<g><path style="opacity:1" fill="#f6e06b" d="M 132.5,272.5 C 132.5,275.167 132.5,277.833 132.5,280.5C 140.5,280.5 148.5,280.5 156.5,280.5C 156.5,277.833 156.5,275.167 156.5,272.5C 157.477,275.287 157.81,278.287 157.5,281.5C 148.833,281.5 140.167,281.5 131.5,281.5C 131.19,278.287 131.523,275.287 132.5,272.5 Z"/></g>
<g><path style="opacity:1" fill="#fdd710" d="M 132.5,272.5 C 140.5,272.5 148.5,272.5 156.5,272.5C 156.5,275.167 156.5,277.833 156.5,280.5C 148.5,280.5 140.5,280.5 132.5,280.5C 132.5,277.833 132.5,275.167 132.5,272.5 Z"/></g>
<g><path style="opacity:1" fill="#e3e4e7" d="M 60.5,281.5 C 79.5,281.5 98.5,281.5 117.5,281.5C 117.5,285.167 117.5,288.833 117.5,292.5C 98.5,292.5 79.5,292.5 60.5,292.5C 60.5,288.833 60.5,285.167 60.5,281.5 Z"/></g>
<g><path style="opacity:1" fill="#e3e3e7" d="M 170.5,281.5 C 241.5,281.5 312.5,281.5 383.5,281.5C 383.5,285.167 383.5,288.833 383.5,292.5C 312.5,292.5 241.5,292.5 170.5,292.5C 170.5,288.833 170.5,285.167 170.5,281.5 Z"/></g>
<g><path style="opacity:1" fill="#c06625" d="M 421.5,272.5 C 425.833,272.5 430.167,272.5 434.5,272.5C 438.833,272.5 443.167,272.5 447.5,272.5C 447.5,287.167 447.5,301.833 447.5,316.5C 443.167,316.5 438.833,316.5 434.5,316.5C 434.5,308.833 434.5,301.167 434.5,293.5C 430.5,293.5 426.5,293.5 422.5,293.5C 422.167,293.5 421.833,293.5 421.5,293.5C 421.5,289.5 421.5,285.5 421.5,281.5C 421.5,278.5 421.5,275.5 421.5,272.5 Z"/></g>
<g><path style="opacity:1" fill="#f4920d" d="M 383.5,281.5 C 392.167,281.5 400.833,281.5 409.5,281.5C 409.5,285.167 409.5,288.833 409.5,292.5C 400.833,292.5 392.167,292.5 383.5,292.5C 383.5,288.833 383.5,285.167 383.5,281.5 Z"/></g>
<g><path style="opacity:1" fill="#fdc002" d="M 409.5,281.5 C 413.5,281.5 417.5,281.5 421.5,281.5C 421.5,285.5 421.5,289.5 421.5,293.5C 417.5,293.5 413.5,293.5 409.5,293.5C 409.5,293.167 409.5,292.833 409.5,292.5C 409.5,288.833 409.5,285.167 409.5,281.5 Z"/></g>
<g><path style="opacity:1" fill="#ae816f" d="M 131.5,292.5 C 140.017,292.174 148.35,292.507 156.5,293.5C 148.5,293.5 140.5,293.5 132.5,293.5C 132.5,296.833 132.5,300.167 132.5,303.5C 132.5,307.833 132.5,312.167 132.5,316.5C 132.167,316.5 131.833,316.5 131.5,316.5C 131.5,308.5 131.5,300.5 131.5,292.5 Z"/></g>
<g><path style="opacity:1" fill="#884429" d="M 170.5,293.5 C 174.833,293.5 179.167,293.5 183.5,293.5C 183.5,300.833 183.5,308.167 183.5,315.5C 182.517,311.702 182.183,307.702 182.5,303.5C 178.5,303.5 174.5,303.5 170.5,303.5C 170.5,300.167 170.5,296.833 170.5,293.5 Z"/></g>
<g><path style="opacity:1" fill="#843d2b" d="M 317.5,293.5 C 317.5,296.833 317.5,300.167 317.5,303.5C 280.833,303.5 244.167,303.5 207.5,303.5C 203.5,303.5 199.5,303.5 195.5,303.5C 195.5,300.167 195.5,296.833 195.5,293.5C 236.167,293.5 276.833,293.5 317.5,293.5 Z"/></g>
<g><path style="opacity:1" fill="#fed900" d="M 409.5,293.5 C 413.5,293.5 417.5,293.5 421.5,293.5C 421.5,297.5 421.5,301.5 421.5,305.5C 417.4,305.763 413.4,305.43 409.5,304.5C 409.5,300.833 409.5,297.167 409.5,293.5 Z"/></g>
<g><path style="opacity:1" fill="#7f3d2c" d="M 60.5,292.5 C 79.5,292.5 98.5,292.5 117.5,292.5C 117.5,300.5 117.5,308.5 117.5,316.5C 112.5,316.5 107.5,316.5 102.5,316.5C 102.818,311.968 102.485,307.634 101.5,303.5C 91.8333,303.5 82.1667,303.5 72.5,303.5C 72.5,307.833 72.5,312.167 72.5,316.5C 68.5,316.5 64.5,316.5 60.5,316.5C 60.5,308.5 60.5,300.5 60.5,292.5 Z"/></g>
<g><path style="opacity:1" fill="#824129" d="M 156.5,293.5 C 156.5,296.833 156.5,300.167 156.5,303.5C 148.5,303.5 140.5,303.5 132.5,303.5C 132.5,300.167 132.5,296.833 132.5,293.5C 140.5,293.5 148.5,293.5 156.5,293.5 Z"/></g>
<g><path style="opacity:1" fill="#65312b" d="M 317.5,293.5 C 339.5,293.5 361.5,293.5 383.5,293.5C 391.833,293.5 400.167,293.5 408.5,293.5C 408.5,296.833 408.5,300.167 408.5,303.5C 390.167,303.5 371.833,303.5 353.5,303.5C 353.167,303.5 352.833,303.5 352.5,303.5C 340.833,303.5 329.167,303.5 317.5,303.5C 317.5,300.167 317.5,296.833 317.5,293.5 Z"/></g>
<g><path style="opacity:1" fill="#f9bf01" d="M 49.5,302.5 C 52.8333,302.5 56.1667,302.5 59.5,302.5C 59.5,307.167 59.5,311.833 59.5,316.5C 56.1667,316.5 52.8333,316.5 49.5,316.5C 49.5,311.833 49.5,307.167 49.5,302.5 Z"/></g>
<g><path style="opacity:1" fill="#7f3f29" d="M 422.5,293.5 C 426.5,293.5 430.5,293.5 434.5,293.5C 434.5,301.167 434.5,308.833 434.5,316.5C 434.167,316.5 433.833,316.5 433.5,316.5C 433.5,312.833 433.5,309.167 433.5,305.5C 429.833,305.5 426.167,305.5 422.5,305.5C 422.5,301.5 422.5,297.5 422.5,293.5 Z"/></g>
<g><path style="opacity:1" fill="#f8c001" d="M 101.5,303.5 C 101.5,307.833 101.5,312.167 101.5,316.5C 91.8333,316.5 82.1667,316.5 72.5,316.5C 72.5,312.167 72.5,307.833 72.5,303.5C 82.1667,303.5 91.8333,303.5 101.5,303.5 Z"/></g>
<g><path style="opacity:1" fill="#c66007" d="M 132.5,303.5 C 140.5,303.5 148.5,303.5 156.5,303.5C 156.5,307.833 156.5,312.167 156.5,316.5C 152.167,316.5 147.833,316.5 143.5,316.5C 139.833,316.5 136.167,316.5 132.5,316.5C 132.5,312.167 132.5,307.833 132.5,303.5 Z"/></g>
<g><path style="opacity:1" fill="#a64b19" d="M 170.5,303.5 C 174.5,303.5 178.5,303.5 182.5,303.5C 182.183,307.702 182.517,311.702 183.5,315.5C 187.5,315.5 191.5,315.5 195.5,315.5C 195.5,315.833 195.5,316.167 195.5,316.5C 187.167,316.5 178.833,316.5 170.5,316.5C 170.5,312.167 170.5,307.833 170.5,303.5 Z"/></g>
<g><path style="opacity:1" fill="#7b4944" d="M 170.5,293.5 C 170.5,293.167 170.5,292.833 170.5,292.5C 241.5,292.5 312.5,292.5 383.5,292.5C 383.5,292.833 383.5,293.167 383.5,293.5C 361.5,293.5 339.5,293.5 317.5,293.5C 276.833,293.5 236.167,293.5 195.5,293.5C 195.5,296.833 195.5,300.167 195.5,303.5C 195.5,307.5 195.5,311.5 195.5,315.5C 191.5,315.5 187.5,315.5 183.5,315.5C 183.5,308.167 183.5,300.833 183.5,293.5C 179.167,293.5 174.833,293.5 170.5,293.5 Z"/></g>
<g><path style="opacity:1" fill="#fcd401" d="M 207.5,303.5 C 244.167,303.5 280.833,303.5 317.5,303.5C 317.5,307.5 317.5,311.5 317.5,315.5C 299.833,315.5 282.167,315.5 264.5,315.5C 264.5,324.833 264.5,334.167 264.5,343.5C 257.167,343.5 249.833,343.5 242.5,343.5C 242.5,338.5 242.5,333.5 242.5,328.5C 246.5,328.5 250.5,328.5 254.5,328.5C 254.5,324.167 254.5,319.833 254.5,315.5C 235.167,315.5 215.833,315.5 196.5,315.5C 196.5,311.833 196.5,308.167 196.5,304.5C 200.371,304.815 204.038,304.482 207.5,303.5 Z"/></g>
<g><path style="opacity:1" fill="#7f3b24" d="M 353.5,303.5 C 371.833,303.5 390.167,303.5 408.5,303.5C 408.5,307.5 408.5,311.5 408.5,315.5C 390.167,315.5 371.833,315.5 353.5,315.5C 353.5,311.5 353.5,307.5 353.5,303.5 Z"/></g>
<g><path style="opacity:1" fill="#b54c0c" d="M 317.5,303.5 C 329.167,303.5 340.833,303.5 352.5,303.5C 352.5,307.833 352.5,312.167 352.5,316.5C 347.833,316.5 343.167,316.5 338.5,316.5C 331.313,316.825 324.313,316.491 317.5,315.5C 317.5,311.5 317.5,307.5 317.5,303.5 Z"/></g>
<g><path style="opacity:1" fill="#f1a803" d="M 421.5,293.5 C 421.833,293.5 422.167,293.5 422.5,293.5C 422.5,297.5 422.5,301.5 422.5,305.5C 422.5,308.833 422.5,312.167 422.5,315.5C 418.167,315.5 413.833,315.5 409.5,315.5C 409.5,311.833 409.5,308.167 409.5,304.5C 413.4,305.43 417.4,305.763 421.5,305.5C 421.5,301.5 421.5,297.5 421.5,293.5 Z"/></g>
<g><path style="opacity:1" fill="#b16c19" d="M 383.5,293.5 C 383.5,293.167 383.5,292.833 383.5,292.5C 392.167,292.5 400.833,292.5 409.5,292.5C 409.5,292.833 409.5,293.167 409.5,293.5C 409.5,297.167 409.5,300.833 409.5,304.5C 409.5,308.167 409.5,311.833 409.5,315.5C 413.833,315.5 418.167,315.5 422.5,315.5C 422.5,315.833 422.5,316.167 422.5,316.5C 417.637,316.819 412.97,316.486 408.5,315.5C 408.5,311.5 408.5,307.5 408.5,303.5C 408.5,300.167 408.5,296.833 408.5,293.5C 400.167,293.5 391.833,293.5 383.5,293.5 Z"/></g>
<g><path style="opacity:1" fill="#d69502" d="M 101.5,303.5 C 102.485,307.634 102.818,311.968 102.5,316.5C 107.5,316.5 112.5,316.5 117.5,316.5C 117.5,320.5 117.5,324.5 117.5,328.5C 117.5,333.5 117.5,338.5 117.5,343.5C 112.5,343.5 107.5,343.5 102.5,343.5C 102.5,338.5 102.5,333.5 102.5,328.5C 92.5,328.5 82.5,328.5 72.5,328.5C 72.5,324.5 72.5,320.5 72.5,316.5C 82.1667,316.5 91.8333,316.5 101.5,316.5C 101.5,312.167 101.5,307.833 101.5,303.5 Z"/></g>
<g><path style="opacity:1" fill="#fcd500" d="M 170.5,316.5 C 178.833,316.5 187.167,316.5 195.5,316.5C 196.485,320.634 196.818,324.968 196.5,329.5C 187.833,329.5 179.167,329.5 170.5,329.5C 170.5,325.167 170.5,320.833 170.5,316.5 Z"/></g>
<g><path style="opacity:1" fill="#d69501" d="M 195.5,303.5 C 199.5,303.5 203.5,303.5 207.5,303.5C 204.038,304.482 200.371,304.815 196.5,304.5C 196.5,308.167 196.5,311.833 196.5,315.5C 215.833,315.5 235.167,315.5 254.5,315.5C 254.5,319.833 254.5,324.167 254.5,328.5C 250.5,328.5 246.5,328.5 242.5,328.5C 242.5,333.5 242.5,338.5 242.5,343.5C 226.5,343.5 210.5,343.5 194.5,343.5C 190.5,343.5 186.5,343.5 182.5,343.5C 182.5,348.167 182.5,352.833 182.5,357.5C 178.5,357.5 174.5,357.5 170.5,357.5C 170.5,348.167 170.5,338.833 170.5,329.5C 179.167,329.5 187.833,329.5 196.5,329.5C 196.818,324.968 196.485,320.634 195.5,316.5C 195.5,316.167 195.5,315.833 195.5,315.5C 195.5,311.5 195.5,307.5 195.5,303.5 Z"/></g>
<g><path style="opacity:1" fill="#d69401" d="M 317.5,315.5 C 324.313,316.491 331.313,316.825 338.5,316.5C 338.5,320.5 338.5,324.5 338.5,328.5C 331.167,328.5 323.833,328.5 316.5,328.5C 316.5,333.5 316.5,338.5 316.5,343.5C 316.5,348.5 316.5,353.5 316.5,358.5C 319.5,358.5 322.5,358.5 325.5,358.5C 325.5,364.167 325.5,369.833 325.5,375.5C 317.833,375.5 310.167,375.5 302.5,375.5C 302.822,369.642 302.489,363.975 301.5,358.5C 298.167,358.5 294.833,358.5 291.5,358.5C 291.5,364.167 291.5,369.833 291.5,375.5C 288.167,375.5 284.833,375.5 281.5,375.5C 281.5,369.833 281.5,364.167 281.5,358.5C 277.833,358.5 274.167,358.5 270.5,358.5C 270.5,364.167 270.5,369.833 270.5,375.5C 265.167,375.5 259.833,375.5 254.5,375.5C 254.5,369.833 254.5,364.167 254.5,358.5C 250.5,358.5 246.5,358.5 242.5,358.5C 242.5,353.5 242.5,348.5 242.5,343.5C 249.833,343.5 257.167,343.5 264.5,343.5C 264.5,334.167 264.5,324.833 264.5,315.5C 282.167,315.5 299.833,315.5 317.5,315.5 Z"/></g>
<g><path style="opacity:1" fill="#fad001" d="M 367.5,316.5 C 372.833,316.5 378.167,316.5 383.5,316.5C 383.5,320.833 383.5,325.167 383.5,329.5C 382.514,333.97 382.181,338.637 382.5,343.5C 377.5,343.5 372.5,343.5 367.5,343.5C 367.5,334.5 367.5,325.5 367.5,316.5 Z"/></g>
<g><path style="opacity:1" fill="#9c4619" d="M 352.5,303.5 C 352.833,303.5 353.167,303.5 353.5,303.5C 353.5,307.5 353.5,311.5 353.5,315.5C 371.833,315.5 390.167,315.5 408.5,315.5C 412.97,316.486 417.637,316.819 422.5,316.5C 422.5,330.5 422.5,344.5 422.5,358.5C 418.167,358.5 413.833,358.5 409.5,358.5C 409.822,364.358 409.489,370.025 408.5,375.5C 408.5,369.5 408.5,363.5 408.5,357.5C 408.5,352.833 408.5,348.167 408.5,343.5C 404.167,343.5 399.833,343.5 395.5,343.5C 395.5,338.833 395.5,334.167 395.5,329.5C 391.5,329.5 387.5,329.5 383.5,329.5C 383.5,325.167 383.5,320.833 383.5,316.5C 378.167,316.5 372.833,316.5 367.5,316.5C 362.5,316.5 357.5,316.5 352.5,316.5C 352.5,312.167 352.5,307.833 352.5,303.5 Z"/></g>
<g><path style="opacity:1" fill="#e3e4e3" d="M 49.5,276.5 C 49.5,285.167 49.5,293.833 49.5,302.5C 49.5,307.167 49.5,311.833 49.5,316.5C 52.8333,316.5 56.1667,316.5 59.5,316.5C 59.8333,316.5 60.1667,316.5 60.5,316.5C 60.5,336.167 60.5,355.833 60.5,375.5C 60.5,380.5 60.5,385.5 60.5,390.5C 60.5,395.167 60.5,399.833 60.5,404.5C 56.8333,404.5 53.1667,404.5 49.5,404.5C 49.5,418.5 49.5,432.5 49.5,446.5C 48.8333,446.5 48.1667,446.5 47.5,446.5C 48.1627,389.736 48.8294,333.069 49.5,276.5 Z"/></g>
<g><path style="opacity:1" fill="#d59903" d="M 132.5,316.5 C 136.167,316.5 139.833,316.5 143.5,316.5C 143.5,320.5 143.5,324.5 143.5,328.5C 139.833,328.5 136.167,328.5 132.5,328.5C 132.5,324.5 132.5,320.5 132.5,316.5 Z"/></g>
<g><path style="opacity:1" fill="#a74c20" d="M 60.5,316.5 C 64.5,316.5 68.5,316.5 72.5,316.5C 72.5,320.5 72.5,324.5 72.5,328.5C 68.8333,328.5 65.1667,328.5 61.5,328.5C 61.5,344.167 61.5,359.833 61.5,375.5C 61.1667,375.5 60.8333,375.5 60.5,375.5C 60.5,355.833 60.5,336.167 60.5,316.5 Z"/></g>
<g><path style="opacity:1" fill="#fbd0a1" d="M 143.5,316.5 C 147.833,316.5 152.167,316.5 156.5,316.5C 156.5,341.167 156.5,365.833 156.5,390.5C 156.5,395.167 156.5,399.833 156.5,404.5C 152.167,404.5 147.833,404.5 143.5,404.5C 139.833,404.5 136.167,404.5 132.5,404.5C 132.5,399.5 132.5,394.5 132.5,389.5C 132.5,385.167 132.5,380.833 132.5,376.5C 136.167,376.5 139.833,376.5 143.5,376.5C 143.5,370.5 143.5,364.5 143.5,358.5C 143.5,348.5 143.5,338.5 143.5,328.5C 143.5,324.5 143.5,320.5 143.5,316.5 Z"/></g>
<g><path style="opacity:1" fill="#f9ac06" d="M 132.5,328.5 C 136.167,328.5 139.833,328.5 143.5,328.5C 143.5,338.5 143.5,348.5 143.5,358.5C 139.833,358.5 136.167,358.5 132.5,358.5C 132.5,348.5 132.5,338.5 132.5,328.5 Z"/></g>
<g><path style="opacity:1" fill="#f9af00" d="M 72.5,328.5 C 82.5,328.5 92.5,328.5 102.5,328.5C 102.5,333.5 102.5,338.5 102.5,343.5C 102.167,343.5 101.833,343.5 101.5,343.5C 101.5,338.833 101.5,334.167 101.5,329.5C 96.5,329.5 91.5,329.5 86.5,329.5C 86.5,334.167 86.5,338.833 86.5,343.5C 81.8333,343.5 77.1667,343.5 72.5,343.5C 72.5,338.5 72.5,333.5 72.5,328.5 Z"/></g>
<g><path style="opacity:1" fill="#fdc500" d="M 101.5,343.5 C 96.5,343.5 91.5,343.5 86.5,343.5C 86.5,338.833 86.5,334.167 86.5,329.5C 91.5,329.5 96.5,329.5 101.5,329.5C 101.5,334.167 101.5,338.833 101.5,343.5 Z"/></g>
<g><path style="opacity:1" fill="#e1dad4" d="M 131.5,316.5 C 131.833,316.5 132.167,316.5 132.5,316.5C 132.5,320.5 132.5,324.5 132.5,328.5C 132.5,338.5 132.5,348.5 132.5,358.5C 132.5,364.167 132.5,369.833 132.5,375.5C 127.5,375.5 122.5,375.5 117.5,375.5C 117.5,369.833 117.5,364.167 117.5,358.5C 117.5,353.5 117.5,348.5 117.5,343.5C 117.5,338.5 117.5,333.5 117.5,328.5C 122.167,328.5 126.833,328.5 131.5,328.5C 131.5,324.5 131.5,320.5 131.5,316.5 Z"/></g>
<g><path style="opacity:1" fill="#c45f14" d="M 366.5,343.5 C 362.167,343.5 357.833,343.5 353.5,343.5C 353.821,348.695 353.487,353.695 352.5,358.5C 352.5,348.5 352.5,338.5 352.5,328.5C 357.167,328.5 361.833,328.5 366.5,328.5C 366.5,333.5 366.5,338.5 366.5,343.5 Z"/></g>
<g><path style="opacity:1" fill="#6b352b" d="M 383.5,329.5 C 387.5,329.5 391.5,329.5 395.5,329.5C 395.5,334.167 395.5,338.833 395.5,343.5C 399.833,343.5 404.167,343.5 408.5,343.5C 408.5,348.167 408.5,352.833 408.5,357.5C 399.833,357.5 391.167,357.5 382.5,357.5C 382.5,352.833 382.5,348.167 382.5,343.5C 382.181,338.637 382.514,333.97 383.5,329.5 Z"/></g>
<g><path style="opacity:1" fill="#d39103" d="M 72.5,343.5 C 77.1667,343.5 81.8333,343.5 86.5,343.5C 91.5,343.5 96.5,343.5 101.5,343.5C 101.833,343.5 102.167,343.5 102.5,343.5C 102.5,348.5 102.5,353.5 102.5,358.5C 99.1667,358.5 95.8333,358.5 92.5,358.5C 92.5,364.167 92.5,369.833 92.5,375.5C 90.1667,375.5 87.8333,375.5 85.5,375.5C 85.5,369.833 85.5,364.167 85.5,358.5C 81.1667,358.5 76.8333,358.5 72.5,358.5C 72.5,353.5 72.5,348.5 72.5,343.5 Z"/></g>
<g><path style="opacity:1" fill="#f9a501" d="M 316.5,343.5 C 323.833,343.5 331.167,343.5 338.5,343.5C 338.5,348.5 338.5,353.5 338.5,358.5C 338.167,358.5 337.833,358.5 337.5,358.5C 333.5,358.5 329.5,358.5 325.5,358.5C 322.5,358.5 319.5,358.5 316.5,358.5C 316.5,353.5 316.5,348.5 316.5,343.5 Z"/></g>
<g><path style="opacity:1" fill="#fbc300" d="M 338.5,316.5 C 343.167,316.5 347.833,316.5 352.5,316.5C 357.5,316.5 362.5,316.5 367.5,316.5C 367.5,325.5 367.5,334.5 367.5,343.5C 367.167,343.5 366.833,343.5 366.5,343.5C 366.5,338.5 366.5,333.5 366.5,328.5C 361.833,328.5 357.167,328.5 352.5,328.5C 352.5,338.5 352.5,348.5 352.5,358.5C 347.833,358.5 343.167,358.5 338.5,358.5C 338.5,353.5 338.5,348.5 338.5,343.5C 331.167,343.5 323.833,343.5 316.5,343.5C 316.5,338.5 316.5,333.5 316.5,328.5C 323.833,328.5 331.167,328.5 338.5,328.5C 338.5,324.5 338.5,320.5 338.5,316.5 Z"/></g>
<g><path style="opacity:1" fill="#fcd504" d="M 102.5,343.5 C 107.5,343.5 112.5,343.5 117.5,343.5C 117.5,348.5 117.5,353.5 117.5,358.5C 112.5,358.5 107.5,358.5 102.5,358.5C 102.5,353.5 102.5,348.5 102.5,343.5 Z"/></g>
<g><path style="opacity:1" fill="#f9a600" d="M 194.5,343.5 C 194.5,348.5 194.5,353.5 194.5,358.5C 190.833,358.5 187.167,358.5 183.5,358.5C 183.822,364.358 183.489,370.025 182.5,375.5C 182.5,369.833 182.5,364.167 182.5,358.5C 178.5,358.5 174.5,358.5 170.5,358.5C 170.5,358.167 170.5,357.833 170.5,357.5C 174.5,357.5 178.5,357.5 182.5,357.5C 182.5,352.833 182.5,348.167 182.5,343.5C 186.5,343.5 190.5,343.5 194.5,343.5 Z"/></g>
<g><path style="opacity:1" fill="#fcd402" d="M 194.5,343.5 C 210.5,343.5 226.5,343.5 242.5,343.5C 242.5,348.5 242.5,353.5 242.5,358.5C 234.5,358.5 226.5,358.5 218.5,358.5C 218.5,364.167 218.5,369.833 218.5,375.5C 214.833,375.5 211.167,375.5 207.5,375.5C 207.5,369.833 207.5,364.167 207.5,358.5C 203.167,358.5 198.833,358.5 194.5,358.5C 194.5,353.5 194.5,348.5 194.5,343.5 Z"/></g>
<g><path style="opacity:1" fill="#aa4716" d="M 366.5,343.5 C 366.833,343.5 367.167,343.5 367.5,343.5C 372.5,343.5 377.5,343.5 382.5,343.5C 382.5,348.167 382.5,352.833 382.5,357.5C 382.5,363.5 382.5,369.5 382.5,375.5C 391.167,375.5 399.833,375.5 408.5,375.5C 399.682,376.493 390.682,376.827 381.5,376.5C 381.5,370.5 381.5,364.5 381.5,358.5C 377.167,358.5 372.833,358.5 368.5,358.5C 368.5,364.167 368.5,369.833 368.5,375.5C 358.167,375.5 347.833,375.5 337.5,375.5C 337.5,369.833 337.5,364.167 337.5,358.5C 337.833,358.5 338.167,358.5 338.5,358.5C 343.167,358.5 347.833,358.5 352.5,358.5C 353.487,353.695 353.821,348.695 353.5,343.5C 357.833,343.5 362.167,343.5 366.5,343.5 Z"/></g>
<g><path style="opacity:1" fill="#b04414" d="M 72.5,328.5 C 72.5,333.5 72.5,338.5 72.5,343.5C 72.5,348.5 72.5,353.5 72.5,358.5C 72.5,364.167 72.5,369.833 72.5,375.5C 68.8333,375.5 65.1667,375.5 61.5,375.5C 61.5,359.833 61.5,344.167 61.5,328.5C 65.1667,328.5 68.8333,328.5 72.5,328.5 Z"/></g>
<g><path style="opacity:0.995" fill="#d6d4d7" d="M 434.5,316.5 C 438.833,316.5 443.167,316.5 447.5,316.5C 447.5,345.833 447.5,375.167 447.5,404.5C 443.167,404.5 438.833,404.5 434.5,404.5C 434.5,375.167 434.5,345.833 434.5,316.5 Z"/></g>
<g><path style="opacity:1" fill="#825d59" d="M 433.5,316.5 C 433.833,316.5 434.167,316.5 434.5,316.5C 434.5,345.833 434.5,375.167 434.5,404.5C 430.167,404.5 425.833,404.5 421.5,404.5C 425.298,403.517 429.298,403.183 433.5,403.5C 433.5,374.5 433.5,345.5 433.5,316.5 Z"/></g>
<g><path style="opacity:1" fill="#fcc819" d="M 132.5,358.5 C 136.167,358.5 139.833,358.5 143.5,358.5C 143.5,364.5 143.5,370.5 143.5,376.5C 139.833,376.5 136.167,376.5 132.5,376.5C 127.5,376.5 122.5,376.5 117.5,376.5C 117.5,376.167 117.5,375.833 117.5,375.5C 122.5,375.5 127.5,375.5 132.5,375.5C 132.5,369.833 132.5,364.167 132.5,358.5 Z"/></g>
<g><path style="opacity:1" fill="#fdd704" d="M 170.5,358.5 C 174.5,358.5 178.5,358.5 182.5,358.5C 182.5,364.167 182.5,369.833 182.5,375.5C 178.5,375.5 174.5,375.5 170.5,375.5C 170.5,369.833 170.5,364.167 170.5,358.5 Z"/></g>
<g><path style="opacity:1" fill="#d59302" d="M 194.5,358.5 C 198.833,358.5 203.167,358.5 207.5,358.5C 207.5,364.167 207.5,369.833 207.5,375.5C 206.514,379.97 206.181,384.637 206.5,389.5C 194.42,389.188 182.42,389.521 170.5,390.5C 170.5,385.5 170.5,380.5 170.5,375.5C 174.5,375.5 178.5,375.5 182.5,375.5C 183.489,370.025 183.822,364.358 183.5,358.5C 187.167,358.5 190.833,358.5 194.5,358.5 Z"/></g>
<g><path style="opacity:1" fill="#fad101" d="M 301.5,358.5 C 301.5,364.5 301.5,370.5 301.5,376.5C 306.833,376.5 312.167,376.5 317.5,376.5C 317.5,380.833 317.5,385.167 317.5,389.5C 302.167,389.5 286.833,389.5 271.5,389.5C 271.819,384.637 271.486,379.97 270.5,375.5C 270.5,369.833 270.5,364.167 270.5,358.5C 274.167,358.5 277.833,358.5 281.5,358.5C 281.5,364.167 281.5,369.833 281.5,375.5C 284.833,375.5 288.167,375.5 291.5,375.5C 291.5,369.833 291.5,364.167 291.5,358.5C 294.833,358.5 298.167,358.5 301.5,358.5 Z"/></g>
<g><path style="opacity:1" fill="#f8ba01" d="M 301.5,358.5 C 302.489,363.975 302.822,369.642 302.5,375.5C 310.167,375.5 317.833,375.5 325.5,375.5C 325.5,369.833 325.5,364.167 325.5,358.5C 329.5,358.5 333.5,358.5 337.5,358.5C 337.5,364.167 337.5,369.833 337.5,375.5C 347.833,375.5 358.167,375.5 368.5,375.5C 368.5,380.5 368.5,385.5 368.5,390.5C 363.167,390.5 357.833,390.5 352.5,390.5C 347.833,390.5 343.167,390.5 338.5,390.5C 331.833,390.5 325.167,390.5 318.5,390.5C 302.5,390.5 286.5,390.5 270.5,390.5C 270.5,385.5 270.5,380.5 270.5,375.5C 271.486,379.97 271.819,384.637 271.5,389.5C 286.833,389.5 302.167,389.5 317.5,389.5C 317.5,385.167 317.5,380.833 317.5,376.5C 312.167,376.5 306.833,376.5 301.5,376.5C 301.5,370.5 301.5,364.5 301.5,358.5 Z"/></g>
<g><path style="opacity:1" fill="#faba02" d="M 382.5,357.5 C 391.167,357.5 399.833,357.5 408.5,357.5C 408.5,363.5 408.5,369.5 408.5,375.5C 399.833,375.5 391.167,375.5 382.5,375.5C 382.5,369.5 382.5,363.5 382.5,357.5 Z"/></g>
<g><path style="opacity:1" fill="#eeedee" d="M 131.5,281.5 C 140.167,281.5 148.833,281.5 157.5,281.5C 157.5,285.167 157.5,288.833 157.5,292.5C 161.833,292.5 166.167,292.5 170.5,292.5C 170.5,292.833 170.5,293.167 170.5,293.5C 170.5,296.833 170.5,300.167 170.5,303.5C 170.5,307.833 170.5,312.167 170.5,316.5C 170.5,320.833 170.5,325.167 170.5,329.5C 170.5,338.833 170.5,348.167 170.5,357.5C 170.5,357.833 170.5,358.167 170.5,358.5C 170.5,364.167 170.5,369.833 170.5,375.5C 170.5,380.5 170.5,385.5 170.5,390.5C 165.833,390.5 161.167,390.5 156.5,390.5C 156.5,365.833 156.5,341.167 156.5,316.5C 156.5,312.167 156.5,307.833 156.5,303.5C 156.5,300.167 156.5,296.833 156.5,293.5C 148.35,292.507 140.017,292.174 131.5,292.5C 131.5,288.833 131.5,285.167 131.5,281.5 Z"/></g>
<g><path style="opacity:1" fill="#fccd97" d="M 242.5,358.5 C 246.5,358.5 250.5,358.5 254.5,358.5C 254.5,364.167 254.5,369.833 254.5,375.5C 246.167,375.5 237.833,375.5 229.5,375.5C 225.833,375.5 222.167,375.5 218.5,375.5C 218.5,369.833 218.5,364.167 218.5,358.5C 226.5,358.5 234.5,358.5 242.5,358.5 Z"/></g>
<g><path style="opacity:1" fill="#fad900" d="M 72.5,358.5 C 76.8333,358.5 81.1667,358.5 85.5,358.5C 85.5,364.167 85.5,369.833 85.5,375.5C 81.1667,375.5 76.8333,375.5 72.5,375.5C 72.5,369.833 72.5,364.167 72.5,358.5 Z"/></g>
<g><path style="opacity:1" fill="#fccd95" d="M 102.5,358.5 C 107.5,358.5 112.5,358.5 117.5,358.5C 117.5,364.167 117.5,369.833 117.5,375.5C 112.5,375.5 107.5,375.5 102.5,375.5C 99.1667,375.5 95.8333,375.5 92.5,375.5C 92.5,369.833 92.5,364.167 92.5,358.5C 95.8333,358.5 99.1667,358.5 102.5,358.5 Z"/></g>
<g><path style="opacity:1" fill="#62322e" d="M 422.5,305.5 C 426.167,305.5 429.833,305.5 433.5,305.5C 433.5,309.167 433.5,312.833 433.5,316.5C 433.5,345.5 433.5,374.5 433.5,403.5C 429.298,403.183 425.298,403.517 421.5,404.5C 417.5,404.5 413.5,404.5 409.5,404.5C 405.167,404.5 400.833,404.5 396.5,404.5C 396.5,399.833 396.5,395.167 396.5,390.5C 391.833,390.5 387.167,390.5 382.5,390.5C 381.515,394.634 381.182,398.968 381.5,403.5C 371.833,403.5 362.167,403.5 352.5,403.5C 352.5,399.167 352.5,394.833 352.5,390.5C 357.833,390.5 363.167,390.5 368.5,390.5C 368.5,385.5 368.5,380.5 368.5,375.5C 368.5,369.833 368.5,364.167 368.5,358.5C 372.833,358.5 377.167,358.5 381.5,358.5C 381.5,364.5 381.5,370.5 381.5,376.5C 390.682,376.827 399.682,376.493 408.5,375.5C 409.489,370.025 409.822,364.358 409.5,358.5C 413.833,358.5 418.167,358.5 422.5,358.5C 422.5,344.5 422.5,330.5 422.5,316.5C 422.5,316.167 422.5,315.833 422.5,315.5C 422.5,312.167 422.5,308.833 422.5,305.5 Z"/></g>
<g><path style="opacity:1" fill="#fcd301" d="M 229.5,375.5 C 237.833,375.5 246.167,375.5 254.5,375.5C 254.5,380.167 254.5,384.833 254.5,389.5C 246.167,389.5 237.833,389.5 229.5,389.5C 229.5,384.833 229.5,380.167 229.5,375.5 Z"/></g>
<g><path style="opacity:1" fill="#fbb705" d="M 60.5,375.5 C 60.8333,375.5 61.1667,375.5 61.5,375.5C 65.1667,375.5 68.8333,375.5 72.5,375.5C 72.5,380.5 72.5,385.5 72.5,390.5C 68.5,390.5 64.5,390.5 60.5,390.5C 60.5,385.5 60.5,380.5 60.5,375.5 Z"/></g>
<g><path style="opacity:1" fill="#b04719" d="M 72.5,375.5 C 76.8333,375.5 81.1667,375.5 85.5,375.5C 85.5,380.167 85.5,384.833 85.5,389.5C 85.5,389.833 85.5,390.167 85.5,390.5C 81.1667,390.5 76.8333,390.5 72.5,390.5C 72.5,385.5 72.5,380.5 72.5,375.5 Z"/></g>
<g><path style="opacity:1" fill="#fbd104" d="M 85.5,375.5 C 87.8333,375.5 90.1667,375.5 92.5,375.5C 95.8333,375.5 99.1667,375.5 102.5,375.5C 102.5,380.167 102.5,384.833 102.5,389.5C 96.8333,389.5 91.1667,389.5 85.5,389.5C 85.5,384.833 85.5,380.167 85.5,375.5 Z"/></g>
<g><path style="opacity:1" fill="#f5a604" d="M 102.5,375.5 C 107.5,375.5 112.5,375.5 117.5,375.5C 117.5,375.833 117.5,376.167 117.5,376.5C 117.5,380.833 117.5,385.167 117.5,389.5C 117.5,394.167 117.5,398.833 117.5,403.5C 112.833,403.5 108.167,403.5 103.5,403.5C 103.818,398.968 103.485,394.634 102.5,390.5C 96.8333,390.5 91.1667,390.5 85.5,390.5C 85.5,390.167 85.5,389.833 85.5,389.5C 91.1667,389.5 96.8333,389.5 102.5,389.5C 102.5,384.833 102.5,380.167 102.5,375.5 Z"/></g>
<g><path style="opacity:1" fill="#fad706" d="M 117.5,376.5 C 122.5,376.5 127.5,376.5 132.5,376.5C 132.5,380.833 132.5,385.167 132.5,389.5C 127.5,389.5 122.5,389.5 117.5,389.5C 117.5,385.167 117.5,380.833 117.5,376.5 Z"/></g>
<g><path style="opacity:1" fill="#f4a202" d="M 207.5,375.5 C 211.167,375.5 214.833,375.5 218.5,375.5C 222.167,375.5 225.833,375.5 229.5,375.5C 229.5,380.167 229.5,384.833 229.5,389.5C 237.833,389.5 246.167,389.5 254.5,389.5C 239.009,390.496 223.342,390.83 207.5,390.5C 203.5,390.5 199.5,390.5 195.5,390.5C 195.5,395.167 195.5,399.833 195.5,404.5C 187.167,404.5 178.833,404.5 170.5,404.5C 170.5,399.833 170.5,395.167 170.5,390.5C 182.42,389.521 194.42,389.188 206.5,389.5C 206.181,384.637 206.514,379.97 207.5,375.5 Z"/></g>
<g><path style="opacity:1" fill="#fad407" d="M 60.5,390.5 C 64.5,390.5 68.5,390.5 72.5,390.5C 72.5,395.167 72.5,399.833 72.5,404.5C 68.5,404.5 64.5,404.5 60.5,404.5C 60.5,399.833 60.5,395.167 60.5,390.5 Z"/></g>
<g><path style="opacity:1" fill="#673631" d="M 72.5,390.5 C 76.8333,390.5 81.1667,390.5 85.5,390.5C 91.1667,390.5 96.8333,390.5 102.5,390.5C 102.5,395.167 102.5,399.833 102.5,404.5C 92.5,404.5 82.5,404.5 72.5,404.5C 72.5,399.833 72.5,395.167 72.5,390.5 Z"/></g>
<g><path style="opacity:1" fill="#ab4217" d="M 338.5,390.5 C 343.167,390.5 347.833,390.5 352.5,390.5C 352.5,394.833 352.5,399.167 352.5,403.5C 347.833,403.5 343.167,403.5 338.5,403.5C 338.5,399.167 338.5,394.833 338.5,390.5 Z"/></g>
<g><path style="opacity:1" fill="#da9704" d="M 382.5,390.5 C 387.167,390.5 391.833,390.5 396.5,390.5C 396.5,395.167 396.5,399.833 396.5,404.5C 396.5,409.167 396.5,413.833 396.5,418.5C 396.167,418.5 395.833,418.5 395.5,418.5C 395.5,413.833 395.5,409.167 395.5,404.5C 391.167,404.5 386.833,404.5 382.5,404.5C 382.5,399.833 382.5,395.167 382.5,390.5 Z"/></g>
<g><path style="opacity:1" fill="#f9da09" d="M 156.5,390.5 C 161.167,390.5 165.833,390.5 170.5,390.5C 170.5,395.167 170.5,399.833 170.5,404.5C 165.833,404.5 161.167,404.5 156.5,404.5C 156.5,399.833 156.5,395.167 156.5,390.5 Z"/></g>
<g><path style="opacity:1" fill="#db9b04" d="M 117.5,389.5 C 122.5,389.5 127.5,389.5 132.5,389.5C 132.5,394.5 132.5,399.5 132.5,404.5C 132.5,409.167 132.5,413.833 132.5,418.5C 132.167,418.5 131.833,418.5 131.5,418.5C 131.5,413.833 131.5,409.167 131.5,404.5C 126.833,404.5 122.167,404.5 117.5,404.5C 112.5,404.5 107.5,404.5 102.5,404.5C 102.5,399.833 102.5,395.167 102.5,390.5C 103.485,394.634 103.818,398.968 103.5,403.5C 108.167,403.5 112.833,403.5 117.5,403.5C 117.5,398.833 117.5,394.167 117.5,389.5 Z"/></g>
<g><path style="opacity:1" fill="#fbda00" d="M 207.5,390.5 C 207.5,395.167 207.5,399.833 207.5,404.5C 203.5,404.5 199.5,404.5 195.5,404.5C 195.5,399.833 195.5,395.167 195.5,390.5C 199.5,390.5 203.5,390.5 207.5,390.5 Z"/></g>
<g><path style="opacity:1" fill="#ad4517" d="M 254.5,375.5 C 259.833,375.5 265.167,375.5 270.5,375.5C 270.5,380.5 270.5,385.5 270.5,390.5C 286.5,390.5 302.5,390.5 318.5,390.5C 318.5,394.833 318.5,399.167 318.5,403.5C 281.427,403.173 244.427,403.507 207.5,404.5C 207.5,399.833 207.5,395.167 207.5,390.5C 223.342,390.83 239.009,390.496 254.5,389.5C 254.5,384.833 254.5,380.167 254.5,375.5 Z"/></g>
<g><path style="opacity:1" fill="#7e4926" d="M 382.5,390.5 C 382.5,395.167 382.5,399.833 382.5,404.5C 377.833,404.5 373.167,404.5 368.5,404.5C 363.167,404.5 357.833,404.5 352.5,404.5C 347.637,404.819 342.97,404.486 338.5,403.5C 343.167,403.5 347.833,403.5 352.5,403.5C 362.167,403.5 371.833,403.5 381.5,403.5C 381.182,398.968 381.515,394.634 382.5,390.5 Z"/></g>
<g><path style="opacity:1" fill="#9aa4ab" d="M 60.5,404.5 C 60.5,413.167 60.5,421.833 60.5,430.5C 64.5,430.5 68.5,430.5 72.5,430.5C 72.5,440.5 72.5,450.5 72.5,460.5C 76.8333,460.5 81.1667,460.5 85.5,460.5C 85.1818,465.032 85.5151,469.366 86.5,473.5C 91.8333,473.5 97.1667,473.5 102.5,473.5C 102.5,469.167 102.5,464.833 102.5,460.5C 102.5,455.833 102.5,451.167 102.5,446.5C 96.8333,446.5 91.1667,446.5 85.5,446.5C 85.5,441.5 85.5,436.5 85.5,431.5C 96.1667,431.5 106.833,431.5 117.5,431.5C 117.5,436.167 117.5,440.833 117.5,445.5C 117.5,450.167 117.5,454.833 117.5,459.5C 117.5,464.167 117.5,468.833 117.5,473.5C 125.84,473.334 134.173,473.5 142.5,474C 143.467,478.401 143.8,482.901 143.5,487.5C 112.167,487.5 80.8333,487.5 49.5,487.5C 49.5,473.833 49.5,460.167 49.5,446.5C 49.5,432.5 49.5,418.5 49.5,404.5C 53.1667,404.5 56.8333,404.5 60.5,404.5 Z"/></g>
<g><path style="opacity:1" fill="#e5e4e7" d="M 60.5,404.5 C 64.5,404.5 68.5,404.5 72.5,404.5C 72.5,409.167 72.5,413.833 72.5,418.5C 82.5,418.5 92.5,418.5 102.5,418.5C 107.5,418.5 112.5,418.5 117.5,418.5C 117.5,422.833 117.5,427.167 117.5,431.5C 106.833,431.5 96.1667,431.5 85.5,431.5C 85.5,436.5 85.5,441.5 85.5,446.5C 91.1667,446.5 96.8333,446.5 102.5,446.5C 102.5,451.167 102.5,455.833 102.5,460.5C 97.1667,460.5 91.8333,460.5 86.5,460.5C 86.5,464.833 86.5,469.167 86.5,473.5C 85.5151,469.366 85.1818,465.032 85.5,460.5C 81.1667,460.5 76.8333,460.5 72.5,460.5C 72.5,450.5 72.5,440.5 72.5,430.5C 68.5,430.5 64.5,430.5 60.5,430.5C 60.5,421.833 60.5,413.167 60.5,404.5 Z"/></g>
<g><path style="opacity:1" fill="#c58617" d="M 72.5,404.5 C 82.5,404.5 92.5,404.5 102.5,404.5C 102.5,409.167 102.5,413.833 102.5,418.5C 92.5,418.5 82.5,418.5 72.5,418.5C 72.5,413.833 72.5,409.167 72.5,404.5 Z"/></g>
<g><path style="opacity:1" fill="#613531" d="M 102.5,404.5 C 107.5,404.5 112.5,404.5 117.5,404.5C 117.5,409.167 117.5,413.833 117.5,418.5C 112.5,418.5 107.5,418.5 102.5,418.5C 102.5,413.833 102.5,409.167 102.5,404.5 Z"/></g>
<g><path style="opacity:1" fill="#884226" d="M 117.5,404.5 C 122.167,404.5 126.833,404.5 131.5,404.5C 131.5,409.167 131.5,413.833 131.5,418.5C 126.833,418.5 122.167,418.5 117.5,418.5C 117.5,413.833 117.5,409.167 117.5,404.5 Z"/></g>
<g><path style="opacity:1" fill="#fdd600" d="M 132.5,404.5 C 136.167,404.5 139.833,404.5 143.5,404.5C 143.5,409.167 143.5,413.833 143.5,418.5C 139.833,418.5 136.167,418.5 132.5,418.5C 132.5,413.833 132.5,409.167 132.5,404.5 Z"/></g>
<g><path style="opacity:1" fill="#d08f01" d="M 143.5,404.5 C 147.833,404.5 152.167,404.5 156.5,404.5C 156.5,409.167 156.5,413.833 156.5,418.5C 152.167,418.5 147.833,418.5 143.5,418.5C 143.5,413.833 143.5,409.167 143.5,404.5 Z"/></g>
<g><path style="opacity:1" fill="#e78800" d="M 156.5,404.5 C 161.167,404.5 165.833,404.5 170.5,404.5C 170.5,409.167 170.5,413.833 170.5,418.5C 165.833,418.5 161.167,418.5 156.5,418.5C 156.5,413.833 156.5,409.167 156.5,404.5 Z"/></g>
<g><path style="opacity:1" fill="#61342e" d="M 318.5,390.5 C 325.167,390.5 331.833,390.5 338.5,390.5C 338.5,394.833 338.5,399.167 338.5,403.5C 342.97,404.486 347.637,404.819 352.5,404.5C 352.5,409.167 352.5,413.833 352.5,418.5C 332.167,418.5 311.833,418.5 291.5,418.5C 279.167,418.5 266.833,418.5 254.5,418.5C 250.167,418.5 245.833,418.5 241.5,418.5C 230.167,418.5 218.833,418.5 207.5,418.5C 207.5,413.833 207.5,409.167 207.5,404.5C 244.427,403.507 281.427,403.173 318.5,403.5C 318.5,399.167 318.5,394.833 318.5,390.5 Z"/></g>
<g><path style="opacity:1" fill="#b8722b" d="M 368.5,404.5 C 373.167,404.5 377.833,404.5 382.5,404.5C 386.833,404.5 391.167,404.5 395.5,404.5C 395.5,409.167 395.5,413.833 395.5,418.5C 391.167,418.5 386.833,418.5 382.5,418.5C 377.833,418.5 373.167,418.5 368.5,418.5C 368.5,413.833 368.5,409.167 368.5,404.5 Z"/></g>
<g><path style="opacity:1" fill="#fcd503" d="M 396.5,404.5 C 400.833,404.5 405.167,404.5 409.5,404.5C 409.5,409.167 409.5,413.833 409.5,418.5C 405.167,418.5 400.833,418.5 396.5,418.5C 396.5,413.833 396.5,409.167 396.5,404.5 Z"/></g>
<g><path style="opacity:1" fill="#5d3232" d="M 195.5,405.5 C 195.5,409.833 195.5,414.167 195.5,418.5C 187.5,418.5 179.5,418.5 171.5,418.5C 171.5,414.167 171.5,409.833 171.5,405.5C 179.5,405.5 187.5,405.5 195.5,405.5 Z"/></g>
<g><path style="opacity:1" fill="#a94014" d="M 195.5,404.5 C 199.5,404.5 203.5,404.5 207.5,404.5C 207.5,409.167 207.5,413.833 207.5,418.5C 203.5,418.5 199.5,418.5 195.5,418.5C 195.5,414.167 195.5,409.833 195.5,405.5C 195.5,405.167 195.5,404.833 195.5,404.5 Z"/></g>
<g><path style="opacity:1" fill="#e4e4e7" d="M 421.5,404.5 C 425.833,404.5 430.167,404.5 434.5,404.5C 434.5,413.5 434.5,422.5 434.5,431.5C 417.167,431.5 399.833,431.5 382.5,431.5C 382.5,427.167 382.5,422.833 382.5,418.5C 386.833,418.5 391.167,418.5 395.5,418.5C 395.833,418.5 396.167,418.5 396.5,418.5C 400.833,418.5 405.167,418.5 409.5,418.5C 413.5,418.5 417.5,418.5 421.5,418.5C 421.5,413.833 421.5,409.167 421.5,404.5 Z"/></g>
<g><path style="opacity:1" fill="#834b25" d="M 170.5,404.5 C 178.833,404.5 187.167,404.5 195.5,404.5C 195.5,404.833 195.5,405.167 195.5,405.5C 187.5,405.5 179.5,405.5 171.5,405.5C 171.5,409.833 171.5,414.167 171.5,418.5C 171.167,418.5 170.833,418.5 170.5,418.5C 170.5,413.833 170.5,409.167 170.5,404.5 Z"/></g>
<g><path style="opacity:1" fill="#fabd0e" d="M 352.5,404.5 C 357.833,404.5 363.167,404.5 368.5,404.5C 368.5,409.167 368.5,413.833 368.5,418.5C 373.167,418.5 377.833,418.5 382.5,418.5C 382.5,422.833 382.5,427.167 382.5,431.5C 372.5,431.5 362.5,431.5 352.5,431.5C 340.833,431.5 329.167,431.5 317.5,431.5C 308.651,431.826 299.984,431.493 291.5,430.5C 291.5,426.5 291.5,422.5 291.5,418.5C 311.833,418.5 332.167,418.5 352.5,418.5C 352.5,413.833 352.5,409.167 352.5,404.5 Z"/></g>
<g><path style="opacity:1" fill="#d9902d" d="M 409.5,404.5 C 413.5,404.5 417.5,404.5 421.5,404.5C 421.5,409.167 421.5,413.833 421.5,418.5C 417.5,418.5 413.5,418.5 409.5,418.5C 409.5,413.833 409.5,409.167 409.5,404.5 Z"/></g>
<g><path style="opacity:1" fill="#b47534" d="M 117.5,418.5 C 122.167,418.5 126.833,418.5 131.5,418.5C 131.833,418.5 132.167,418.5 132.5,418.5C 136.167,418.5 139.833,418.5 143.5,418.5C 143.5,418.833 143.5,419.167 143.5,419.5C 143.5,423.167 143.5,426.833 143.5,430.5C 143.5,430.833 143.5,431.167 143.5,431.5C 134.833,431.5 126.167,431.5 117.5,431.5C 117.5,427.167 117.5,422.833 117.5,418.5 Z"/></g>
<g><path style="opacity:1" fill="#fabd0c" d="M 143.5,419.5 C 143.5,419.167 143.5,418.833 143.5,418.5C 147.833,418.5 152.167,418.5 156.5,418.5C 161.167,418.5 165.833,418.5 170.5,418.5C 170.833,418.5 171.167,418.5 171.5,418.5C 179.5,418.5 187.5,418.5 195.5,418.5C 199.5,418.5 203.5,418.5 207.5,418.5C 218.833,418.5 230.167,418.5 241.5,418.5C 241.5,422.5 241.5,426.5 241.5,430.5C 245.833,430.5 250.167,430.5 254.5,430.5C 254.5,430.833 254.5,431.167 254.5,431.5C 250.167,431.5 245.833,431.5 241.5,431.5C 226.5,431.5 211.5,431.5 196.5,431.5C 196.167,431.5 195.833,431.5 195.5,431.5C 182.5,431.5 169.5,431.5 156.5,431.5C 152.167,431.5 147.833,431.5 143.5,431.5C 143.5,431.167 143.5,430.833 143.5,430.5C 147.833,430.5 152.167,430.5 156.5,430.5C 156.5,426.833 156.5,423.167 156.5,419.5C 152.167,419.5 147.833,419.5 143.5,419.5 Z"/></g>
<g><path style="opacity:1" fill="#fdd600" d="M 241.5,418.5 C 245.833,418.5 250.167,418.5 254.5,418.5C 254.5,422.5 254.5,426.5 254.5,430.5C 250.167,430.5 245.833,430.5 241.5,430.5C 241.5,426.5 241.5,422.5 241.5,418.5 Z"/></g>
<g><path style="opacity:1" fill="#b37231" d="M 254.5,418.5 C 266.833,418.5 279.167,418.5 291.5,418.5C 291.5,422.5 291.5,426.5 291.5,430.5C 279.167,430.5 266.833,430.5 254.5,430.5C 254.5,426.5 254.5,422.5 254.5,418.5 Z"/></g>
<g><path style="opacity:1" fill="#fcd501" d="M 143.5,419.5 C 147.833,419.5 152.167,419.5 156.5,419.5C 156.5,423.167 156.5,426.833 156.5,430.5C 152.167,430.5 147.833,430.5 143.5,430.5C 143.5,426.833 143.5,423.167 143.5,419.5 Z"/></g>
<g><path style="opacity:1" fill="#e6e5e8" d="M 117.5,431.5 C 126.167,431.5 134.833,431.5 143.5,431.5C 147.833,431.5 152.167,431.5 156.5,431.5C 156.5,436.167 156.5,440.833 156.5,445.5C 143.5,445.5 130.5,445.5 117.5,445.5C 117.5,440.833 117.5,436.167 117.5,431.5 Z"/></g>
<g><path style="opacity:1" fill="#9aa4ac" d="M 156.5,431.5 C 169.5,431.5 182.5,431.5 195.5,431.5C 195.5,436.167 195.5,440.833 195.5,445.5C 182.5,445.5 169.5,445.5 156.5,445.5C 156.5,440.833 156.5,436.167 156.5,431.5 Z"/></g>
<g><path style="opacity:1" fill="#fdfdfd" d="M 196.5,431.5 C 211.5,431.5 226.5,431.5 241.5,431.5C 241.5,436.5 241.5,441.5 241.5,446.5C 226.5,446.5 211.5,446.5 196.5,446.5C 196.5,441.5 196.5,436.5 196.5,431.5 Z"/></g>
<g><path style="opacity:1" fill="#a2adb6" d="M 241.5,431.5 C 245.833,431.5 250.167,431.5 254.5,431.5C 254.5,436.5 254.5,441.5 254.5,446.5C 250.167,446.5 245.833,446.5 241.5,446.5C 241.5,441.5 241.5,436.5 241.5,431.5 Z"/></g>
<g><path style="opacity:1" fill="#e6e4e5" d="M 254.5,430.5 C 266.833,430.5 279.167,430.5 291.5,430.5C 299.984,431.493 308.651,431.826 317.5,431.5C 317.5,436.5 317.5,441.5 317.5,446.5C 296.5,446.5 275.5,446.5 254.5,446.5C 254.5,441.5 254.5,436.5 254.5,431.5C 254.5,431.167 254.5,430.833 254.5,430.5 Z"/></g>
<g><path style="opacity:1" fill="#99a3aa" d="M 434.5,404.5 C 438.833,404.5 443.167,404.5 447.5,404.5C 447.185,418.579 447.518,432.579 448.5,446.5C 447.504,459.99 447.171,473.656 447.5,487.5C 355.167,487.5 262.833,487.5 170.5,487.5C 170.5,483.167 170.5,478.833 170.5,474.5C 204.167,474.5 237.833,474.5 271.5,474.5C 271.5,469.833 271.5,465.167 271.5,460.5C 265.833,460.5 260.167,460.5 254.5,460.5C 254.5,455.833 254.5,451.167 254.5,446.5C 275.5,446.5 296.5,446.5 317.5,446.5C 317.5,441.5 317.5,436.5 317.5,431.5C 329.167,431.5 340.833,431.5 352.5,431.5C 352.5,436.5 352.5,441.5 352.5,446.5C 362.5,446.5 372.5,446.5 382.5,446.5C 382.5,451.167 382.5,455.833 382.5,460.5C 372.5,460.5 362.5,460.5 352.5,460.5C 352.5,465.167 352.5,469.833 352.5,474.5C 371.167,474.5 389.833,474.5 408.5,474.5C 408.5,469.833 408.5,465.167 408.5,460.5C 412.833,460.5 417.167,460.5 421.5,460.5C 421.5,455.5 421.5,450.5 421.5,445.5C 408.5,445.5 395.5,445.5 382.5,445.5C 382.5,440.833 382.5,436.167 382.5,431.5C 399.833,431.5 417.167,431.5 434.5,431.5C 434.5,422.5 434.5,413.5 434.5,404.5 Z"/></g>
<g><path style="opacity:1" fill="#61332e" d="M 14.5,446.5 C 25.5,446.5 36.5,446.5 47.5,446.5C 48.1667,446.5 48.8333,446.5 49.5,446.5C 49.5,460.167 49.5,473.833 49.5,487.5C 45.1667,487.5 40.8333,487.5 36.5,487.5C 36.5,483.5 36.5,479.5 36.5,475.5C 33.1667,475.5 29.8333,475.5 26.5,475.5C 26.5,474.5 26.5,473.5 26.5,472.5C 23.9208,472.917 21.7542,472.25 20,470.5C 19.6667,470.833 19.3333,471.167 19,471.5C 18.5172,470.552 18.3505,469.552 18.5,468.5C 17.1667,468.5 15.8333,468.5 14.5,468.5C 14.5,461.167 14.5,453.833 14.5,446.5 Z"/></g>
<g><path style="opacity:1" fill="#fdfdfd" d="M 117.5,445.5 C 130.5,445.5 143.5,445.5 156.5,445.5C 168.989,446.495 181.656,446.829 194.5,446.5C 194.5,450.833 194.5,455.167 194.5,459.5C 168.833,459.5 143.167,459.5 117.5,459.5C 117.5,454.833 117.5,450.167 117.5,445.5 Z"/></g>
<g><path style="opacity:1" fill="#e5e4e8" d="M 195.5,431.5 C 195.833,431.5 196.167,431.5 196.5,431.5C 196.5,436.5 196.5,441.5 196.5,446.5C 211.5,446.5 226.5,446.5 241.5,446.5C 245.833,446.5 250.167,446.5 254.5,446.5C 254.5,451.167 254.5,455.833 254.5,460.5C 260.167,460.5 265.833,460.5 271.5,460.5C 271.5,465.167 271.5,469.833 271.5,474.5C 237.833,474.5 204.167,474.5 170.5,474.5C 170.5,478.833 170.5,483.167 170.5,487.5C 161.5,487.5 152.5,487.5 143.5,487.5C 143.8,482.901 143.467,478.401 142.5,474C 134.173,473.5 125.84,473.334 117.5,473.5C 117.5,468.833 117.5,464.167 117.5,459.5C 143.167,459.5 168.833,459.5 194.5,459.5C 194.5,455.167 194.5,450.833 194.5,446.5C 181.656,446.829 168.989,446.495 156.5,445.5C 169.5,445.5 182.5,445.5 195.5,445.5C 195.5,440.833 195.5,436.167 195.5,431.5 Z"/></g>
<g><path style="opacity:1" fill="#e4e3e7" d="M 352.5,431.5 C 362.5,431.5 372.5,431.5 382.5,431.5C 382.5,436.167 382.5,440.833 382.5,445.5C 395.5,445.5 408.5,445.5 421.5,445.5C 421.5,450.5 421.5,455.5 421.5,460.5C 417.167,460.5 412.833,460.5 408.5,460.5C 408.5,465.167 408.5,469.833 408.5,474.5C 389.833,474.5 371.167,474.5 352.5,474.5C 352.5,469.833 352.5,465.167 352.5,460.5C 362.5,460.5 372.5,460.5 382.5,460.5C 382.5,455.833 382.5,451.167 382.5,446.5C 372.5,446.5 362.5,446.5 352.5,446.5C 352.5,441.5 352.5,436.5 352.5,431.5 Z"/></g>
<g><path style="opacity:1" fill="#fdfdfd" d="M 102.5,460.5 C 102.5,464.833 102.5,469.167 102.5,473.5C 97.1667,473.5 91.8333,473.5 86.5,473.5C 86.5,469.167 86.5,464.833 86.5,460.5C 91.8333,460.5 97.1667,460.5 102.5,460.5 Z"/></g>
<g><path style="opacity:1" fill="#834836" d="M 14.5,446.5 C 14.5,453.833 14.5,461.167 14.5,468.5C 15.8333,468.5 17.1667,468.5 18.5,468.5C 18.3505,469.552 18.5172,470.552 19,471.5C 19.3333,471.167 19.6667,470.833 20,470.5C 21.7542,472.25 23.9208,472.917 26.5,472.5C 26.5,473.5 26.5,474.5 26.5,475.5C 29.8333,475.5 33.1667,475.5 36.5,475.5C 36.5,479.5 36.5,483.5 36.5,487.5C 40.8333,487.5 45.1667,487.5 49.5,487.5C 52.9619,488.482 56.6286,488.815 60.5,488.5C 60.5,492.167 60.5,495.833 60.5,499.5C 40.1667,499.5 19.8333,499.5 -0.5,499.5C -0.5,486.5 -0.5,473.5 -0.5,460.5C 4.16667,460.5 8.83333,460.5 13.5,460.5C 13.1805,455.637 13.5139,450.97 14.5,446.5 Z"/></g>
<g><path style="opacity:1" fill="#7e4635" d="M 468.5,460.5 C 478.833,460.5 489.167,460.5 499.5,460.5C 499.5,465.5 499.5,470.5 499.5,475.5C 495.5,475.5 491.5,475.5 487.5,475.5C 487.5,470.833 487.5,466.167 487.5,461.5C 480.978,461.823 474.645,461.49 468.5,460.5 Z"/></g>
<g><path style="opacity:1" fill="#613430" d="M 448.5,446.5 C 455.167,446.5 461.833,446.5 468.5,446.5C 468.5,451.167 468.5,455.833 468.5,460.5C 474.645,461.49 480.978,461.823 487.5,461.5C 487.5,466.167 487.5,470.833 487.5,475.5C 491.5,475.5 495.5,475.5 499.5,475.5C 499.5,480.833 499.5,486.167 499.5,491.5C 496.833,491.5 494.167,491.5 491.5,491.5C 489.167,491.5 486.833,491.5 484.5,491.5C 481.5,491.5 478.5,491.5 475.5,491.5C 473.167,491.5 470.833,491.5 468.5,491.5C 465.833,491.5 463.167,491.5 460.5,491.5C 460.5,494.167 460.5,496.833 460.5,499.5C 327.167,499.5 193.833,499.5 60.5,499.5C 60.5,495.833 60.5,492.167 60.5,488.5C 56.6286,488.815 52.9619,488.482 49.5,487.5C 80.8333,487.5 112.167,487.5 143.5,487.5C 152.5,487.5 161.5,487.5 170.5,487.5C 262.833,487.5 355.167,487.5 447.5,487.5C 447.171,473.656 447.504,459.99 448.5,446.5 Z"/></g>
<g><path style="opacity:1" fill="#f8ff6c" d="M 468.5,491.5 C 468.5,494.167 468.5,496.833 468.5,499.5C 465.833,499.5 463.167,499.5 460.5,499.5C 460.5,496.833 460.5,494.167 460.5,491.5C 463.167,491.5 465.833,491.5 468.5,491.5 Z"/></g>
<g><path style="opacity:1" fill="#42fffe" d="M 468.5,491.5 C 470.833,491.5 473.167,491.5 475.5,491.5C 475.5,494.167 475.5,496.833 475.5,499.5C 473.167,499.5 470.833,499.5 468.5,499.5C 468.5,496.833 468.5,494.167 468.5,491.5 Z"/></g>
<g><path style="opacity:1" fill="#60d655" d="M 475.5,491.5 C 478.5,491.5 481.5,491.5 484.5,491.5C 484.5,494.167 484.5,496.833 484.5,499.5C 481.5,499.5 478.5,499.5 475.5,499.5C 475.5,496.833 475.5,494.167 475.5,491.5 Z"/></g>
<g><path style="opacity:1" fill="#fe6e3b" d="M 484.5,491.5 C 486.833,491.5 489.167,491.5 491.5,491.5C 491.5,494.167 491.5,496.833 491.5,499.5C 489.167,499.5 486.833,499.5 484.5,499.5C 484.5,496.833 484.5,494.167 484.5,491.5 Z"/></g>
<g><path style="opacity:1" fill="#3c45ff" d="M 491.5,491.5 C 494.167,491.5 496.833,491.5 499.5,491.5C 499.5,494.167 499.5,496.833 499.5,499.5C 496.833,499.5 494.167,499.5 491.5,499.5C 491.5,496.833 491.5,494.167 491.5,491.5 Z"/></g>
</svg>
